<svg version="1.1" xmlns="http://www.w3.org/2000/svg" xmlns:xlink="http://www.w3.org/1999/xlink" width="132.81705" height="116.99118" viewBox="0,0,132.81705,116.99118"><defs><radialGradient cx="239.99999" cy="180.00002" r="13.96386" gradientUnits="userSpaceOnUse" id="color-1"><stop offset="0" stop-color="#000000"/><stop offset="1" stop-color="#090909"/></radialGradient><radialGradient cx="239.99999" cy="180" r="13.96386" gradientUnits="userSpaceOnUse" id="color-2"><stop offset="0" stop-color="#000000"/><stop offset="1" stop-color="#090909"/></radialGradient><radialGradient cx="239.99993" cy="180" r="4.78548" gradientUnits="userSpaceOnUse" id="color-3"><stop offset="0" stop-color="#000000"/><stop offset="1" stop-color="#090909"/></radialGradient></defs><g transform="translate(-173.59152,-121.50441)"><g data-paper-data="{&quot;isPaintingLayer&quot;:true}" fill-rule="nonzero" stroke-linecap="butt" stroke-linejoin="miter" stroke-miterlimit="10" stroke-dasharray="" stroke-dashoffset="0" style="mix-blend-mode: normal"><path d="M206.84794,180c0,-18.30938 14.84268,-33.15206 33.15206,-33.15206c18.30938,0 33.15206,14.84268 33.15206,33.15206c0,18.30938 -14.84268,33.15206 -33.15206,33.15206c-18.30938,0 -33.15206,-14.84268 -33.15206,-33.15206z" fill-opacity="0.74902" fill="#121212" stroke="#1b1b1b" stroke-width="4.5"/><path d="M173.59153,238.49559v-116.99118h132.81705v116.99118z" fill="none" stroke="none" stroke-width="0"/><path d="M226.03615,187.91056l21.87441,-21.87441l6.0533,6.0533l-21.87441,21.87441z" fill="url(#color-1)" stroke="#ffffff" stroke-width="0.5"/><path d="M247.91055,193.96385l-21.87441,-21.87441l6.0533,-6.0533l21.87441,21.87441z" data-paper-data="{&quot;index&quot;:null}" fill="url(#color-2)" stroke="#ffffff" stroke-width="0.5"/><path d="M233.23224,180l6.76769,-6.76769l6.76769,6.76769l-6.76769,6.76769z" fill="url(#color-3)" stroke="none" stroke-width="0"/></g></g></svg>