<svg version="1.1" xmlns="http://www.w3.org/2000/svg" xmlns:xlink="http://www.w3.org/1999/xlink" width="90.41442" height="90.41442" viewBox="0,0,90.41442,90.41442"><defs><radialGradient cx="320" cy="180" r="33.15206" gradientUnits="userSpaceOnUse" id="color-1"><stop offset="0" stop-color="#636363"/><stop offset="1" stop-color="#000000"/></radialGradient><linearGradient x1="286.84794" y1="180" x2="353.15206" y2="180" gradientUnits="userSpaceOnUse" id="color-2"><stop offset="0" stop-color="#4e0000"/><stop offset="1" stop-color="#6f0000"/></linearGradient><linearGradient x1="320" y1="144.7978" x2="320" y2="199.92925" gradientUnits="userSpaceOnUse" id="color-3"><stop offset="0" stop-color="#3a1919"/><stop offset="1" stop-color="#781616"/></linearGradient></defs><g transform="translate(-274.79279,-134.79279)"><g data-paper-data="{&quot;isPaintingLayer&quot;:true}" fill-rule="nonzero" stroke-linecap="butt" stroke-linejoin="miter" stroke-miterlimit="10" stroke-dasharray="" stroke-dashoffset="0" style="mix-blend-mode: normal"><path d="M286.84794,180c0,-18.30938 14.84268,-33.15206 33.15206,-33.15206c18.30938,0 33.15206,14.84268 33.15206,33.15206c0,18.30938 -14.84268,33.15206 -33.15206,33.15206c-18.30938,0 -33.15206,-14.84268 -33.15206,-33.15206z" fill="url(#color-1)" stroke="url(#color-2)" stroke-width="5"/><path d="M314.99528,183.0735c0,0 -0.0097,-7.65256 -0.0097,-18.06456c0,-2.7274 2.2113,-4.9382 4.9382,-4.9382c2.7274,0 4.9378,2.2108 4.9378,4.9382c0,8.7293 0.0102,18.03777 0.0102,18.03777c0,0 1.6701,-1.6503 9.2829,-9.2636c1.9287,-1.9286 5.055,-1.9286 6.9832,0c1.9282,1.9296 1.9287,5.0555 0,6.9837c-6.1724,6.1733 -17.7167,17.7163 -17.7167,17.7163c-1.9287,1.9282 -5.0554,1.9282 -6.9832,0c0,0 -9.9617,-9.9613 -17.575,-17.5745c-1.9296,-1.9296 -1.9296,-5.0559 0,-6.9837c1.9283,-1.9287 5.0555,-1.9287 6.9823,0c6.1752,6.1734 9.15,9.1486 9.15,9.1486z" fill="url(#color-3)" stroke="#6f6f6f" stroke-width="1.5"/><path d="M274.79279,225.20721v-90.41442h90.41442v90.41442z" fill="none" stroke="none" stroke-width="0"/></g></g></svg>