<svg version="1.1" xmlns="http://www.w3.org/2000/svg" xmlns:xlink="http://www.w3.org/1999/xlink" width="747.41072" height="489.24175" viewBox="0,0,747.41072,489.24175"><g transform="translate(47.46662,59.48945)"><g data-paper-data="{&quot;isPaintingLayer&quot;:true}" fill-rule="nonzero" stroke-linejoin="miter" stroke-miterlimit="10" stroke-dasharray="" stroke-dashoffset="0" style="mix-blend-mode: normal"><path d="M128.37433,429.75231v-458h398v458z" fill="#ff7474" stroke="none" stroke-width="0" stroke-linecap="butt"/><path d="" fill="#8e8e8e" stroke="#717171" stroke-width="5" stroke-linecap="butt"/><path d="M140.4479,423.99405v-471.47147h357.35736v471.47147z" fill-opacity="0.40392" fill="#00ffff" stroke="none" stroke-width="0" stroke-linecap="butt"/><path d="M47.35481,413.48353v-472.97297h539.03904v472.97297z" fill="none" stroke="none" stroke-width="0" stroke-linecap="butt"/><path d="M357.41487,140.47303l-62.31231,62.31231l22.52252,55.55556l-78.07808,21.02102" fill="none" stroke="#000000" stroke-width="5" stroke-linecap="round"/><path d="M343.15061,153.23579l-45.04504,-30.03003l28.52853,-70.57057" fill="none" stroke="#000000" stroke-width="5" stroke-linecap="round"/><path d="M284.59205,39.12168l34.53453,25.52552" fill="none" stroke="#000000" stroke-width="5" stroke-linecap="round"/><path d="M337.1446,-17.93537l-39.03904,64.56456" fill="none" stroke="#000000" stroke-width="5" stroke-linecap="round"/><path d="M262.06953,142.72528l48.04805,39.03904" fill="none" stroke="#000000" stroke-width="5" stroke-linecap="round"/><path d="M274.08154,153.23579l-64.56456,7.50751l-55.55556,-42.04204l-27.02702,1.5015" fill="none" stroke="#000000" stroke-width="5" stroke-linecap="round"/><path d="M191.49896,148.73129l-67.56757,22.52253" fill="none" stroke="#000000" stroke-width="5" stroke-linecap="round"/><path d="M114.92237,310.89345l99.0991,-93.09309l-4.5045,-27.02703l91.59159,-19.51952" fill="none" stroke="#000000" stroke-width="5" stroke-linecap="round"/><path d="M254.56202,277.86042l22.52252,36.03604l-12.01201,76.57658" fill="none" stroke="#000000" stroke-width="5" stroke-linecap="round"/><path d="M295.10256,207.28985l102.1021,-18.01802l135.13514,78.07808" fill="none" stroke="#000000" stroke-width="5" stroke-linecap="round"/><path d="M331.13859,168.25081l115.61562,-37.53754l1.5015,-64.56456l127.62763,-18.01802" fill="none" stroke="#000000" stroke-width="5" stroke-linecap="round"/><path d="M334.1416,148.73129l19.51952,-75.07508l-12.01201,-60.06006l58.55856,-34.53453" fill="none" stroke="#000000" stroke-width="5" stroke-linecap="round"/><path d="M-47.46662,364.56458v-369.12913h187.01606v369.12913z" fill="#4c4185" stroke="none" stroke-width="0" stroke-linecap="butt"/><path d="M497.44756,364.56456v-369.12913h202.49654v369.12913z" fill="#4c4185" stroke="none" stroke-width="0" stroke-linecap="butt"/></g></g></svg>