<svg version="1.1" xmlns="http://www.w3.org/2000/svg" xmlns:xlink="http://www.w3.org/1999/xlink" width="664.61389" height="289.40467" viewBox="0,0,664.61389,289.40467"><g transform="translate(13.32942,-32.91188)"><g data-paper-data="{&quot;isPaintingLayer&quot;:true}" fill-rule="nonzero" stroke-linejoin="miter" stroke-miterlimit="10" stroke-dasharray="" stroke-dashoffset="0" style="mix-blend-mode: normal"><path d="M-9.57942,144.2132l33.40101,33.40102l-33.40101,33.40101z" fill="none" stroke="#ffffff" stroke-width="7.5" stroke-linecap="round"/><text transform="translate(189.8698,190.90896) scale(0.90908,0.90908)" font-size="40" xml:space="preserve" fill-opacity="0.50196" fill="#000000" fill-rule="nonzero" stroke="none" stroke-width="1" stroke-linecap="butt" stroke-linejoin="miter" stroke-miterlimit="10" stroke-dasharray="" stroke-dashoffset="0" font-family="&quot;Rubik&quot;, Sans Serif" font-weight="normal" text-anchor="start" style="mix-blend-mode: normal"><tspan x="0" dy="0">BREAK IS OVER</tspan></text><path d="M-9.57942,144.21319l33.40102,33.40102l-33.40102,33.40102z" fill="none" stroke="#000000" stroke-width="5" stroke-linecap="round"/><path d="M647.53448,211.01523l-33.40102,-33.40101l33.40102,-33.40102z" data-paper-data="{&quot;index&quot;:null}" fill="none" stroke="#ffffff" stroke-width="7.5" stroke-linecap="round"/><path d="M647.53448,211.01523l-33.40102,-33.40101l33.40102,-33.40102z" data-paper-data="{&quot;index&quot;:null}" fill="none" stroke="#000000" stroke-width="5" stroke-linecap="round"/><path d="M-9.57941,41.96518l33.40101,33.40102l-33.40102,33.40102z" fill="none" stroke="#ffffff" stroke-width="7.5" stroke-linecap="round"/><path d="M-9.57942,41.96518l33.40102,33.40102l-33.40102,33.40102z" fill="none" stroke="#000000" stroke-width="5" stroke-linecap="round"/><path d="M647.53446,108.76722l-33.40101,-33.40102l33.40101,-33.40102z" data-paper-data="{&quot;index&quot;:null}" fill="none" stroke="#ffffff" stroke-width="7.5" stroke-linecap="round"/><path d="M647.53446,108.76722l-33.40102,-33.40102l33.40102,-33.40102z" data-paper-data="{&quot;index&quot;:null}" fill="none" stroke="#000000" stroke-width="5" stroke-linecap="round"/><path d="M-9.57941,246.4612l33.40101,33.40102l-33.40102,33.40102z" fill="none" stroke="#ffffff" stroke-width="7.5" stroke-linecap="round"/><path d="M-9.57942,246.4612l33.40102,33.40102l-33.40102,33.40102z" fill="none" stroke="#000000" stroke-width="5" stroke-linecap="round"/><path d="M647.53446,313.26324l-33.40101,-33.40102l33.40101,-33.40102z" data-paper-data="{&quot;index&quot;:null}" fill="none" stroke="#ffffff" stroke-width="7.5" stroke-linecap="round"/><path d="M647.53446,313.26324l-33.40102,-33.40102l33.40102,-33.40102z" data-paper-data="{&quot;index&quot;:null}" fill="none" stroke="#000000" stroke-width="5" stroke-linecap="round"/></g></g></svg>