<svg version="1.1" xmlns="http://www.w3.org/2000/svg" xmlns:xlink="http://www.w3.org/1999/xlink" width="308.36716" height="73.4118" viewBox="0,0,308.36716,73.4118"><defs><radialGradient cx="207.56936" cy="187.71267" r="19.4959" gradientUnits="userSpaceOnUse" id="color-1"><stop offset="0" stop-color="#7c7c7c"/><stop offset="1" stop-color="#000000"/></radialGradient></defs><g transform="translate(-165.64788,-143.2941)"><g data-paper-data="{&quot;isPaintingLayer&quot;:true}" fill-rule="nonzero" stroke-linecap="butt" stroke-linejoin="miter" stroke-miterlimit="10" stroke-dasharray="" stroke-dashoffset="0" style="mix-blend-mode: normal"><path d="M168.66292,213.7059l0.33708,-67.4118h302l-0.33708,67.4118z" fill="#393939" stroke="#161616" stroke-width="6"/><text transform="translate(175.2092,162.59049) scale(0.31788,0.31788)" font-size="40" xml:space="preserve" fill="#ffffff" fill-rule="nonzero" stroke="none" stroke-width="1" stroke-linecap="butt" stroke-linejoin="miter" stroke-miterlimit="10" stroke-dasharray="" stroke-dashoffset="0" font-family="&quot;Rubik&quot;, Sans Serif" font-weight="normal" text-anchor="start" style="mix-blend-mode: normal"><tspan x="0" dy="0">Now Playing:</tspan></text><text transform="translate(251.89146,192.06084) scale(1.00507,1.00507)" font-size="40" xml:space="preserve" fill="#ffffff" fill-rule="nonzero" stroke="none" stroke-width="1" stroke-linecap="butt" stroke-linejoin="miter" stroke-miterlimit="10" stroke-dasharray="" stroke-dashoffset="0" font-family="&quot;Rubik&quot;, Sans Serif" font-weight="normal" text-anchor="start" style="mix-blend-mode: normal"><tspan x="0" dy="0">Circles!</tspan></text><text transform="translate(394.92389,205.81412) scale(0.31788,0.31788)" font-size="40" xml:space="preserve" fill="#ffffff" fill-rule="nonzero" stroke="none" stroke-width="1" stroke-linecap="butt" stroke-linejoin="miter" stroke-miterlimit="10" stroke-dasharray="" stroke-dashoffset="0" font-family="&quot;Rubik&quot;, Sans Serif" font-weight="normal" text-anchor="start" style="mix-blend-mode: normal"><tspan x="0" dy="0">by: Nekodex</tspan></text><path d="M188.07346,187.71267c0,-10.76729 8.72861,-19.4959 19.4959,-19.4959c10.76729,0 19.4959,8.72861 19.4959,19.4959c0,10.76729 -8.72861,19.4959 -19.4959,19.4959c-10.76729,0 -19.4959,-8.72861 -19.4959,-19.4959z" fill="url(#color-1)" stroke="#161616" stroke-width="6"/><path d="M200.00113,187.71267c0,-4.17982 3.38841,-7.56823 7.56823,-7.56823c4.17982,0 7.56823,3.38841 7.56823,7.56823c0,4.17982 -3.38841,7.56823 -7.56823,7.56823c-4.17982,0 -7.56823,-3.38841 -7.56823,-7.56823z" fill="#393939" stroke="#161616" stroke-width="6"/></g></g></svg>