<svg version="1.1" xmlns="http://www.w3.org/2000/svg" xmlns:xlink="http://www.w3.org/1999/xlink" width="788.00001" height="508.00001" viewBox="0,0,788.00001,508.00001"><defs><radialGradient cx="320" cy="180" r="394" gradientUnits="userSpaceOnUse" id="color-1"><stop offset="0" stop-color="#e00000"/><stop offset="1" stop-color="#1a0000"/></radialGradient><radialGradient cx="320" cy="180" r="394" gradientUnits="userSpaceOnUse" id="color-2"><stop offset="0" stop-color="#e00000"/><stop offset="1" stop-color="#1a0000"/></radialGradient><radialGradient cx="320" cy="180.00001" r="394" gradientUnits="userSpaceOnUse" id="color-3"><stop offset="0" stop-color="#c60000"/><stop offset="1" stop-color="#1a0000"/></radialGradient><radialGradient cx="320" cy="180.00001" r="394" gradientUnits="userSpaceOnUse" id="color-4"><stop offset="0" stop-color="#ab0000"/><stop offset="1" stop-color="#1a0000"/></radialGradient><radialGradient cx="320" cy="180.00001" r="394" gradientUnits="userSpaceOnUse" id="color-5"><stop offset="0" stop-color="#800000"/><stop offset="1" stop-color="#1a0000"/></radialGradient><radialGradient cx="320" cy="180.00001" r="394" gradientUnits="userSpaceOnUse" id="color-6"><stop offset="0" stop-color="#240000"/><stop offset="1" stop-color="#1a0000"/></radialGradient><radialGradient cx="320" cy="180" r="394" gradientUnits="userSpaceOnUse" id="color-7"><stop offset="0" stop-color="#c60000"/><stop offset="1" stop-color="#1a0000"/></radialGradient><radialGradient cx="320" cy="180" r="394" gradientUnits="userSpaceOnUse" id="color-8"><stop offset="0" stop-color="#ab0000"/><stop offset="1" stop-color="#1a0000"/></radialGradient><radialGradient cx="320" cy="180" r="394" gradientUnits="userSpaceOnUse" id="color-9"><stop offset="0" stop-color="#800000"/><stop offset="1" stop-color="#1a0000"/></radialGradient><radialGradient cx="320" cy="180" r="394" gradientUnits="userSpaceOnUse" id="color-10"><stop offset="0" stop-color="#240000"/><stop offset="1" stop-color="#1a0000"/></radialGradient></defs><g transform="translate(74.00001,74)"><g data-paper-data="{&quot;isPaintingLayer&quot;:true}" fill-rule="nonzero" stroke="none" stroke-linecap="butt" stroke-linejoin="miter" stroke-miterlimit="10" stroke-dasharray="" stroke-dashoffset="0" style="mix-blend-mode: normal"><path d="M-74,434l0,-508l326,207l462,301z" fill="url(#color-1)" stroke-width="0"/><path d="M714,-74v508l-326,-207l-462,-301z" fill="url(#color-2)" stroke-width="0"/><path d="M-74,434.00001v-508l287,254l501,254z" fill="url(#color-3)" stroke-width="0"/><path d="M-74,434.00001v-508l221,325l567,183z" fill="url(#color-4)" stroke-width="0"/><path d="M-74,434.00001v-508l174,363l614,145z" fill="url(#color-5)" stroke-width="0"/><path d="M-74,434.00001v-508l127,414l661,94z" fill="url(#color-6)" stroke-width="0"/><path fill="#ff0000" stroke-width="0.5"/><path d="M714,-74v508l-287,-254l-501,-254z" fill="url(#color-7)" stroke-width="0"/><path d="M714,-74v508l-221,-325l-567,-183z" fill="url(#color-8)" stroke-width="0"/><path d="M714,-74v508l-174,-363l-614,-145z" fill="url(#color-9)" stroke-width="0"/><path d="M714,-74v508l-127,-414l-661,-94z" fill="url(#color-10)" stroke-width="0"/></g></g></svg>