<svg version="1.1" xmlns="http://www.w3.org/2000/svg" xmlns:xlink="http://www.w3.org/1999/xlink" width="861.59935" height="539.12913" viewBox="0,0,861.59935,539.12913"><defs><radialGradient cx="240" cy="180" r="156" gradientUnits="userSpaceOnUse" id="color-1"><stop offset="0" stop-color="#3a3a3a"/><stop offset="1" stop-color="#3a3a3a" stop-opacity="0"/></radialGradient></defs><g transform="translate(189.79056,90.19598)"><g data-paper-data="{&quot;isPaintingLayer&quot;:true}" fill-rule="nonzero" stroke-linejoin="miter" stroke-miterlimit="10" stroke-dasharray="" stroke-dashoffset="0" style="mix-blend-mode: normal"><path d="" fill="#8e8e8e" stroke="#717171" stroke-width="5" stroke-linecap="butt"/><path d="M-32.64518,413.48355v-472.97297h539.03904v472.97297z" fill="none" stroke="none" stroke-width="0" stroke-linecap="butt"/><path d="M-189.79055,448.93316v-539.12913h861.59935v539.12913z" fill="#2a2449" stroke="none" stroke-width="0" stroke-linecap="butt"/><path d="M182.10002,-12.99999l26.5375,107.35625l115.8,-84.4375l-103.7375,123.0375l199.03125,-65.1375l-125.45,90.46875l166.4625,3.61875l-137.5125,48.25l132.6875,158.01875l-168.875,-126.65625l39.80625,131.48125l-75.99375,-114.59375l-13.26875,113.3875l-21.7125,-117.00625l-44.63125,100.11875l2.4125,-107.35625l-62.725,79.6125l20.50625,-79.6125l-71.16875,24.125l90.6625,-65.4875l-227.81183,-3.50625l230.74933,-17.65l-134.6125,-43.63125l118.23125,10.20625l-74.80625,-124.8l79.6125,80.81875z" fill="#ffffff" stroke="#ffffff" stroke-width="10" stroke-linecap="round"/><path d="M109.50001,180.00003c0,-72.07316 58.42684,-130.5 130.5,-130.5c72.07316,0 130.5,58.42684 130.5,130.5c0,72.07316 -58.42684,130.5 -130.5,130.5c-72.07316,0 -130.5,-58.42684 -130.5,-130.5z" fill="#0f0d1b" stroke="none" stroke-width="0" stroke-linecap="butt"/><path d="M84,180c0,-86.15642 69.84358,-156 156,-156c86.15642,0 156,69.84358 156,156c0,86.15642 -69.84358,156 -156,156c-86.15642,0 -156,-69.84358 -156,-156z" fill="url(#color-1)" stroke="none" stroke-width="0" stroke-linecap="butt"/></g></g></svg>