<svg version="1.1" xmlns="http://www.w3.org/2000/svg" xmlns:xlink="http://www.w3.org/1999/xlink" width="861.59935" height="765" viewBox="0,0,861.59935,765"><defs><radialGradient cx="240.00002" cy="180" r="311" gradientUnits="userSpaceOnUse" id="color-1"><stop offset="0" stop-color="#9966ff"/><stop offset="1" stop-color="#9966ff" stop-opacity="0"/></radialGradient><radialGradient cx="240.00001" cy="180" r="382.5" gradientUnits="userSpaceOnUse" id="color-2"><stop offset="0" stop-color="#2c2c2c" stop-opacity="0"/><stop offset="1" stop-color="#2c2c2c"/></radialGradient></defs><g transform="translate(189.79054,202.5)"><g data-paper-data="{&quot;isPaintingLayer&quot;:true}" fill-rule="nonzero" stroke-linejoin="miter" stroke-miterlimit="10" stroke-dasharray="" stroke-dashoffset="0" style="mix-blend-mode: normal"><path d="" fill="#8e8e8e" stroke="#717171" stroke-width="5" stroke-linecap="butt"/><path d="M-32.64516,413.48356v-472.97297h539.03904v472.97297z" fill="none" stroke="none" stroke-width="0" stroke-linecap="butt"/><path d="M-189.79053,448.93317v-539.12913h861.59935v539.12913z" fill="#171326" stroke="none" stroke-width="0" stroke-linecap="butt"/><path d="M182.10004,-12.99999l26.5375,107.35625l115.8,-84.4375l-103.7375,123.0375l199.03125,-65.1375l-125.45,90.46875l166.4625,3.61875l-137.5125,48.25l132.6875,158.01875l-168.875,-126.65625l39.80625,131.48125l-75.99375,-114.59375l-13.26875,113.3875l-21.7125,-117.00625l-44.63125,100.11875l2.4125,-107.35625l-62.725,79.6125l20.50625,-79.6125l-71.16875,24.125l90.6625,-65.4875l-227.81183,-3.50625l230.74933,-17.65l-134.6125,-43.63125l118.23125,10.20625l-74.80625,-124.8l79.6125,80.81875z" fill="#3c3c3c" stroke="#7d7d7d" stroke-width="10" stroke-linecap="round"/><path d="M345.59752,62.81448l-73.56963,82.56582l135.10451,47.81321l-160.1318,-16.0469l166.22071,127.38528l-145.53393,-52.36574l91.09143,139.37435l-117.52123,-86.17721l-55.37444,198.77015l9.04933,-210.89969l-85.97353,107.14667l51.59009,-127.45681l-101.04196,53.1348l84.25761,-84.03898l-107.82006,19.7623l89.93082,-58.68248l-101.12843,-6.75396l77.26837,-28.07591l-60.12404,-45.07888l105.26448,37.78479l-125.85603,-189.9231l144.96978,180.38997l-40.08156,-135.71176l58.39879,103.3072l60.68123,-132.24524l-21.68105,111.35418z" fill="#737373" stroke="#2b2b2b" stroke-width="10" stroke-linecap="round"/><path d="M109.50003,180.00003c0,-72.07316 58.42684,-130.5 130.5,-130.5c72.07316,0 130.5,58.42684 130.5,130.5c0,72.07316 -58.42684,130.5 -130.5,130.5c-72.07316,0 -130.5,-58.42684 -130.5,-130.5z" fill="#2a244b" stroke="none" stroke-width="0" stroke-linecap="butt"/><path d="M-70.99998,180c0,-171.76056 139.23944,-311 311,-311c171.76056,0 311,139.23944 311,311c0,171.76056 -139.23944,311 -311,311c-171.76056,0 -311,-139.23944 -311,-311z" fill="url(#color-1)" stroke="none" stroke-width="0" stroke-linecap="butt"/><path d="M-142.5,180c0,-211.24892 171.25108,-382.5 382.5,-382.5c211.24892,0 382.5,171.25108 382.5,382.5c0,211.24892 -171.25108,382.5 -382.5,382.5c-211.24892,0 -382.5,-171.25108 -382.5,-382.5z" fill="url(#color-2)" stroke="none" stroke-width="0" stroke-linecap="butt"/></g></g></svg>