<svg version="1.1" xmlns="http://www.w3.org/2000/svg" xmlns:xlink="http://www.w3.org/1999/xlink" width="727.00741" height="381.3745" viewBox="0,0,727.00741,381.3745"><defs><linearGradient x1="320" y1="-5" x2="320" y2="365" gradientUnits="userSpaceOnUse" id="color-1"><stop offset="0" stop-color="#000000"/><stop offset="1" stop-color="#2c374f"/></linearGradient><radialGradient cx="320" cy="180" r="42.5" gradientUnits="userSpaceOnUse" id="color-2"><stop offset="0" stop-color="#ffffff"/><stop offset="1" stop-color="#ffffff" stop-opacity="0"/></radialGradient><radialGradient cx="447" cy="67" r="42.5" gradientUnits="userSpaceOnUse" id="color-3"><stop offset="0" stop-color="#ffffff"/><stop offset="1" stop-color="#ffffff" stop-opacity="0"/></radialGradient><radialGradient cx="155" cy="77" r="42.5" gradientUnits="userSpaceOnUse" id="color-4"><stop offset="0" stop-color="#ffffff"/><stop offset="1" stop-color="#ffffff" stop-opacity="0"/></radialGradient><radialGradient cx="170" cy="275" r="42.5" gradientUnits="userSpaceOnUse" id="color-5"><stop offset="0" stop-color="#ffffff"/><stop offset="1" stop-color="#ffffff" stop-opacity="0"/></radialGradient><radialGradient cx="496" cy="237" r="42.5" gradientUnits="userSpaceOnUse" id="color-6"><stop offset="0" stop-color="#ffffff"/><stop offset="1" stop-color="#ffffff" stop-opacity="0"/></radialGradient><radialGradient cx="331.5" cy="40.5" r="18" gradientUnits="userSpaceOnUse" id="color-7"><stop offset="0" stop-color="#ffffff"/><stop offset="1" stop-color="#ffffff" stop-opacity="0"/></radialGradient><radialGradient cx="511.5" cy="155.5" r="18" gradientUnits="userSpaceOnUse" id="color-8"><stop offset="0" stop-color="#ffffff"/><stop offset="1" stop-color="#ffffff" stop-opacity="0"/></radialGradient><radialGradient cx="118.5" cy="214.5" r="18" gradientUnits="userSpaceOnUse" id="color-9"><stop offset="0" stop-color="#ffffff"/><stop offset="1" stop-color="#ffffff" stop-opacity="0"/></radialGradient><radialGradient cx="342.5" cy="313.5" r="18" gradientUnits="userSpaceOnUse" id="color-10"><stop offset="0" stop-color="#ffffff"/><stop offset="1" stop-color="#ffffff" stop-opacity="0"/></radialGradient><radialGradient cx="34.41592" cy="137.92342" r="18" gradientUnits="userSpaceOnUse" id="color-11"><stop offset="0" stop-color="#ffffff"/><stop offset="1" stop-color="#ffffff" stop-opacity="0"/></radialGradient><radialGradient cx="36.38138" cy="314.23724" r="42.5" gradientUnits="userSpaceOnUse" id="color-12"><stop offset="0" stop-color="#ffffff"/><stop offset="1" stop-color="#ffffff" stop-opacity="0"/></radialGradient><radialGradient cx="594.93994" cy="72.4955" r="42.5" gradientUnits="userSpaceOnUse" id="color-13"><stop offset="0" stop-color="#ffffff"/><stop offset="1" stop-color="#ffffff" stop-opacity="0"/></radialGradient><radialGradient cx="600.08859" cy="283.12763" r="24.00601" gradientUnits="userSpaceOnUse" id="color-14"><stop offset="0" stop-color="#ffffff"/><stop offset="1" stop-color="#ffffff" stop-opacity="0"/></radialGradient><radialGradient cx="486.99099" cy="312.07508" r="25.98348" gradientUnits="userSpaceOnUse" id="color-15"><stop offset="0" stop-color="#ffffff"/><stop offset="1" stop-color="#ffffff" stop-opacity="0"/></radialGradient><radialGradient cx="650.8993" cy="207.40717" r="42.5" gradientUnits="userSpaceOnUse" id="color-16"><stop offset="0" stop-color="#ffffff"/><stop offset="1" stop-color="#ffffff" stop-opacity="0"/></radialGradient><radialGradient cx="24.99219" cy="26.1255" r="42.5" gradientUnits="userSpaceOnUse" id="color-17"><stop offset="0" stop-color="#ffffff"/><stop offset="1" stop-color="#ffffff" stop-opacity="0"/></radialGradient></defs><g transform="translate(33.60811,16.3745)"><g data-paper-data="{&quot;isPaintingLayer&quot;:true}" fill-rule="nonzero" stroke="none" stroke-width="0" stroke-linecap="butt" stroke-linejoin="miter" stroke-miterlimit="10" stroke-dasharray="" stroke-dashoffset="0" style="mix-blend-mode: normal"><path d="M-33.60811,365v-370h707.21622v370z" fill="url(#color-1)"/><path d="M277.5,180c0,-23.4721 19.0279,-42.5 42.5,-42.5c23.4721,0 42.5,19.0279 42.5,42.5c0,23.4721 -19.0279,42.5 -42.5,42.5c-23.4721,0 -42.5,-19.0279 -42.5,-42.5z" fill="url(#color-2)"/><path d="M404.5,67c0,-23.4721 19.0279,-42.5 42.5,-42.5c23.4721,0 42.5,19.0279 42.5,42.5c0,23.4721 -19.0279,42.5 -42.5,42.5c-23.4721,0 -42.5,-19.0279 -42.5,-42.5z" fill="url(#color-3)"/><path d="M112.5,77c0,-23.4721 19.0279,-42.5 42.5,-42.5c23.4721,0 42.5,19.0279 42.5,42.5c0,23.4721 -19.0279,42.5 -42.5,42.5c-23.4721,0 -42.5,-19.0279 -42.5,-42.5z" fill="url(#color-4)"/><path d="M127.5,275c0,-23.4721 19.0279,-42.5 42.5,-42.5c23.4721,0 42.5,19.0279 42.5,42.5c0,23.4721 -19.0279,42.5 -42.5,42.5c-23.4721,0 -42.5,-19.0279 -42.5,-42.5z" fill="url(#color-5)"/><path d="M453.5,237c0,-23.4721 19.0279,-42.5 42.5,-42.5c23.4721,0 42.5,19.0279 42.5,42.5c0,23.4721 -19.0279,42.5 -42.5,42.5c-23.4721,0 -42.5,-19.0279 -42.5,-42.5z" fill="url(#color-6)"/><path d="M313.5,40.5c0,-9.94112 8.05888,-18 18,-18c9.94112,0 18,8.05888 18,18c0,9.94112 -8.05888,18 -18,18c-9.94112,0 -18,-8.05888 -18,-18z" fill="url(#color-7)"/><path d="M493.5,155.5c0,-9.94112 8.05888,-18 18,-18c9.94113,0 18,8.05888 18,18c0,9.94113 -8.05887,18 -18,18c-9.94112,0 -18,-8.05887 -18,-18z" fill="url(#color-8)"/><path d="M100.5,214.5c0,-9.94112 8.05888,-18 18,-18c9.94113,0 18,8.05888 18,18c0,9.94113 -8.05887,18 -18,18c-9.94112,0 -18,-8.05887 -18,-18z" fill="url(#color-9)"/><path d="M324.5,313.5c0,-9.94112 8.05888,-18 18,-18c9.94113,0 18,8.05888 18,18c0,9.94113 -8.05887,18 -18,18c-9.94112,0 -18,-8.05887 -18,-18z" fill="url(#color-10)"/><path d="M16.41592,137.92342c0,-9.94112 8.05888,-18 18,-18c9.94113,0 18,8.05888 18,18c0,9.94113 -8.05887,18 -18,18c-9.94112,0 -18,-8.05887 -18,-18z" fill="url(#color-11)"/><path d="M-6.11862,314.23724c0,-23.4721 19.0279,-42.5 42.5,-42.5c23.4721,0 42.5,19.0279 42.5,42.5c0,23.4721 -19.0279,42.5 -42.5,42.5c-23.4721,0 -42.5,-19.0279 -42.5,-42.5z" fill="url(#color-12)"/><path d="M552.43994,72.4955c0,-23.4721 19.0279,-42.5 42.5,-42.5c23.4721,0 42.5,19.0279 42.5,42.5c0,23.4721 -19.0279,42.5 -42.5,42.5c-23.4721,0 -42.5,-19.0279 -42.5,-42.5z" fill="url(#color-13)"/><path d="M576.08258,283.12763c0,-13.25814 10.74786,-24.00601 24.00601,-24.00601c13.25816,0 24.00601,10.74786 24.00601,24.00601c0,13.25816 -10.74785,24.00601 -24.00601,24.00601c-13.25814,0 -24.00601,-10.74785 -24.00601,-24.00601z" fill="url(#color-14)"/><path d="M461.00751,312.07508c0,-14.35028 11.6332,-25.98348 25.98348,-25.98348c14.35028,0 25.98348,11.6332 25.98348,25.98348c0,14.35028 -11.6332,25.98348 -25.98348,25.98348c-14.35028,0 -25.98348,-11.6332 -25.98348,-25.98348z" fill="url(#color-15)"/><path d="M608.3993,207.40717c0,-23.4721 19.0279,-42.5 42.5,-42.5c23.4721,0 42.5,19.0279 42.5,42.5c0,23.4721 -19.0279,42.5 -42.5,42.5c-23.4721,0 -42.5,-19.0279 -42.5,-42.5z" fill="url(#color-16)"/><path d="M-17.50781,26.1255c0,-23.4721 19.0279,-42.5 42.5,-42.5c23.4721,0 42.5,19.0279 42.5,42.5c0,23.4721 -19.0279,42.5 -42.5,42.5c-23.4721,0 -42.5,-19.0279 -42.5,-42.5z" fill="url(#color-17)"/></g></g></svg>